<svg width="152" height="143" viewBox="0 0 152 143" fill="none" xmlns="http://www.w3.org/2000/svg">
<path d="M67.3989 7.49722C68.922 -2.33044 83.078 -2.33044 84.6011 7.49722V7.49722C85.7714 15.0488 95.409 17.5344 100.086 11.4908L101.099 10.1808C107.039 2.50507 119.12 9.24959 115.703 18.3337V18.3337C113.037 25.4202 120.312 32.1699 127.18 28.9813L128.863 28.1996C137.475 24.2006 144.865 35.5904 137.704 41.8256V41.8256C132.051 46.7473 135.542 56.0505 143.035 56.2153V56.2153C152.512 56.4237 154.402 69.9228 145.215 72.261V72.261C137.969 74.1055 136.83 83.9237 143.463 87.3758V87.3758C151.854 91.7426 147.307 104.497 138.047 102.572L136.761 102.304C129.39 100.772 123.94 109.044 128.257 115.212V115.212C133.753 123.063 123.796 132.447 116.283 126.497L114.729 125.265C108.762 120.539 100.049 125.325 100.837 132.897V132.897C101.857 142.68 88.3074 146.232 84.3957 137.207L84.022 136.345C80.9788 129.323 71.0213 129.323 67.978 136.345L67.6043 137.207C63.6926 146.232 50.1432 142.68 51.1626 132.897V132.897C51.9515 125.325 43.2385 120.539 37.2714 125.265L35.7166 126.497C28.2044 132.447 18.2474 123.063 23.7426 115.212V115.212C28.0598 109.044 22.6103 100.772 15.2389 102.304L13.9533 102.572C4.69251 104.497 0.146283 91.7426 8.53672 87.3758V87.3758C15.1698 83.9237 14.0311 74.1055 6.78454 72.261V72.261C-2.40155 69.9228 -0.511923 56.4237 8.96478 56.2153V56.2153C16.4582 56.0505 19.9494 46.7473 14.2964 41.8256V41.8256C7.13482 35.5904 14.5245 24.2006 23.137 28.1996L24.8205 28.9813C31.6876 32.1699 38.9629 25.4202 36.2972 18.3337V18.3337C32.8801 9.24959 44.961 2.50507 50.9006 10.1808L51.9143 11.4908C56.591 17.5344 66.2286 15.0488 67.3989 7.49722V7.49722Z" fill="white"/>
</svg>
