<svg width="214" height="240" viewBox="0 0 214 240" fill="none" xmlns="http://www.w3.org/2000/svg">
<path d="M119.399 55.4972C120.922 45.6696 135.078 45.6696 136.601 55.4972C137.771 63.0488 147.409 65.5344 152.086 59.4908L153.099 58.1808C159.039 50.5051 171.12 57.2496 167.703 66.3337C165.037 73.4202 172.312 80.1699 179.18 76.9813L180.863 76.1996C189.475 72.2006 196.865 83.5904 189.704 89.8256C184.051 94.7473 187.542 104.05 195.035 104.215C204.512 104.424 206.402 117.923 197.215 120.261C189.969 122.106 188.83 131.924 195.463 135.376C203.854 139.743 199.307 152.497 190.047 150.572L188.761 150.304C181.39 148.772 175.94 157.044 180.257 163.212C185.753 171.063 175.796 180.447 168.283 174.497L166.729 173.265C160.762 168.539 152.049 173.325 152.837 180.897C153.857 190.68 140.307 194.232 136.396 185.207L136.022 184.345C132.979 177.323 123.021 177.323 119.978 184.345L119.604 185.207C115.693 194.232 102.143 190.68 103.163 180.897C103.951 173.325 95.2385 168.539 89.2714 173.265L87.7166 174.497C80.2044 180.447 70.2474 171.063 75.7426 163.212C80.0598 157.044 74.6103 148.772 67.2389 150.304L65.9533 150.572C56.6925 152.497 52.1463 139.743 60.5367 135.376C67.1698 131.924 66.0311 122.106 58.7845 120.261C49.5985 117.923 51.4881 104.424 60.9648 104.215C68.4582 104.05 71.9494 94.7473 66.2964 89.8256C59.1348 83.5904 66.5245 72.2006 75.137 76.1996L76.8205 76.9813C83.6876 80.1699 90.9629 73.4202 88.2972 66.3337C84.8801 57.2496 96.961 50.5051 102.901 58.1808L103.914 59.4908C108.591 65.5344 118.229 63.0488 119.399 55.4972Z" fill="white"/>
<path d="M94.78 98.112C93.7907 98.112 93.0113 97.8927 92.442 97.454C91.882 97.0153 91.602 96.4227 91.602 95.676C91.602 95.592 91.6113 95.466 91.63 95.298L91.672 94.948C91.6813 94.9013 91.7 94.864 91.728 94.836C91.7653 94.7987 91.8073 94.78 91.854 94.78H93.072C93.1187 94.78 93.156 94.7987 93.184 94.836C93.212 94.864 93.2213 94.9013 93.212 94.948L93.17 95.214L93.156 95.368C93.156 95.76 93.324 96.082 93.66 96.334C94.0053 96.586 94.4767 96.712 95.074 96.712C95.662 96.712 96.1147 96.572 96.432 96.292C96.7493 96.012 96.908 95.662 96.908 95.242C96.908 94.9247 96.7633 94.6633 96.474 94.458C96.1847 94.2527 95.6713 93.996 94.934 93.688C94.374 93.464 93.9167 93.254 93.562 93.058C93.2073 92.862 92.9087 92.6053 92.666 92.288C92.4327 91.9707 92.316 91.5787 92.316 91.112C92.316 90.496 92.4653 89.9593 92.764 89.502C93.072 89.0447 93.492 88.6947 94.024 88.452C94.5653 88.2093 95.1767 88.088 95.858 88.088C96.81 88.088 97.566 88.3167 98.126 88.774C98.6953 89.2313 98.98 89.8427 98.98 90.608C98.98 90.6827 98.9707 90.804 98.952 90.972L98.924 91.21C98.9147 91.2567 98.8913 91.2987 98.854 91.336C98.826 91.364 98.7887 91.378 98.742 91.378H97.51C97.4633 91.378 97.426 91.364 97.398 91.336C97.37 91.2987 97.3607 91.2567 97.37 91.21L97.398 91.056L97.412 90.888C97.412 90.4867 97.2533 90.1553 96.936 89.894C96.628 89.6233 96.1893 89.488 95.62 89.488C95.0787 89.488 94.6493 89.6093 94.332 89.852C94.024 90.0947 93.87 90.44 93.87 90.888C93.87 91.1213 93.94 91.322 94.08 91.49C94.22 91.6487 94.4207 91.7933 94.682 91.924C94.9433 92.0547 95.3447 92.2273 95.886 92.442C96.4553 92.6753 96.9127 92.8853 97.258 93.072C97.6033 93.2587 97.8973 93.5107 98.14 93.828C98.3827 94.1453 98.504 94.542 98.504 95.018C98.504 95.0833 98.4947 95.2 98.476 95.368C98.3733 96.208 97.9907 96.8753 97.328 97.37C96.6747 97.8647 95.8253 98.112 94.78 98.112ZM106.87 88.2C106.916 88.2 106.954 88.2187 106.982 88.256C107.01 88.284 107.019 88.3213 107.01 88.368L106.87 89.446C106.86 89.4927 106.837 89.5347 106.8 89.572C106.772 89.6 106.734 89.614 106.688 89.614H104.196C104.158 89.614 104.13 89.6373 104.112 89.684L103.118 97.832C103.108 97.8787 103.085 97.9207 103.048 97.958C103.02 97.986 102.982 98 102.936 98H101.676C101.629 98 101.592 97.986 101.564 97.958C101.536 97.9207 101.526 97.8787 101.536 97.832L102.544 89.684C102.544 89.6373 102.52 89.614 102.474 89.614H100.08C100.033 89.614 99.9957 89.6 99.9677 89.572C99.9397 89.5347 99.9303 89.4927 99.9397 89.446L100.066 88.368C100.075 88.3213 100.094 88.284 100.122 88.256C100.159 88.2187 100.201 88.2 100.248 88.2H106.87ZM112.161 98C112.077 98 112.026 97.9533 112.007 97.86L111.741 96.362C111.741 96.3527 111.737 96.3433 111.727 96.334C111.718 96.3153 111.704 96.306 111.685 96.306H108.101C108.083 96.306 108.055 96.3247 108.017 96.362L107.387 97.86C107.359 97.9533 107.294 98 107.191 98H105.833C105.777 98 105.735 97.9813 105.707 97.944C105.689 97.9067 105.693 97.86 105.721 97.804L109.837 88.34C109.884 88.2467 109.949 88.2 110.033 88.2H111.727C111.811 88.2 111.863 88.2467 111.881 88.34L113.687 97.804V97.846C113.687 97.9487 113.631 98 113.519 98H112.161ZM108.619 94.948C108.591 95.004 108.605 95.032 108.661 95.032H111.419C111.475 95.032 111.494 95.004 111.475 94.948L110.663 90.258C110.654 90.2207 110.64 90.202 110.621 90.202C110.603 90.202 110.589 90.2207 110.579 90.258L108.619 94.948ZM120.266 98C120.173 98 120.112 97.958 120.084 97.874L118.782 93.842C118.782 93.8233 118.773 93.8093 118.754 93.8C118.745 93.7907 118.731 93.786 118.712 93.786H117.088C117.051 93.786 117.023 93.8093 117.004 93.856L116.514 97.832C116.514 97.8787 116.495 97.9207 116.458 97.958C116.421 97.986 116.379 98 116.332 98H115.086C115.039 98 115.002 97.986 114.974 97.958C114.946 97.9207 114.937 97.8787 114.946 97.832L116.108 88.368C116.117 88.3213 116.136 88.284 116.164 88.256C116.201 88.2187 116.243 88.2 116.29 88.2H120.028C120.784 88.2 121.386 88.4193 121.834 88.858C122.282 89.2967 122.506 89.88 122.506 90.608C122.506 90.7013 122.497 90.8507 122.478 91.056C122.403 91.7 122.175 92.2507 121.792 92.708C121.419 93.156 120.938 93.4687 120.35 93.646C120.313 93.646 120.294 93.674 120.294 93.73L121.708 97.804C121.717 97.8227 121.722 97.846 121.722 97.874C121.722 97.958 121.671 98 121.568 98H120.266ZM117.592 89.6C117.573 89.6 117.555 89.6093 117.536 89.628C117.527 89.6373 117.522 89.6513 117.522 89.67L117.186 92.456C117.167 92.5027 117.186 92.526 117.242 92.526H119.272C119.748 92.526 120.14 92.372 120.448 92.064C120.765 91.7467 120.924 91.3453 120.924 90.86C120.924 90.4773 120.807 90.174 120.574 89.95C120.341 89.7167 120.028 89.6 119.636 89.6H117.592ZM130.539 88.2C130.585 88.2 130.623 88.2187 130.651 88.256C130.679 88.284 130.688 88.3213 130.679 88.368L130.539 89.446C130.529 89.4927 130.506 89.5347 130.469 89.572C130.441 89.6 130.403 89.614 130.357 89.614H127.865C127.827 89.614 127.799 89.6373 127.781 89.684L126.787 97.832C126.777 97.8787 126.754 97.9207 126.717 97.958C126.689 97.986 126.651 98 126.605 98H125.345C125.298 98 125.261 97.986 125.233 97.958C125.205 97.9207 125.195 97.8787 125.205 97.832L126.213 89.684C126.213 89.6373 126.189 89.614 126.143 89.614H123.749C123.702 89.614 123.665 89.6 123.637 89.572C123.609 89.5347 123.599 89.4927 123.609 89.446L123.735 88.368C123.744 88.3213 123.763 88.284 123.791 88.256C123.828 88.2187 123.87 88.2 123.917 88.2H130.539ZM140.827 89.432C140.827 89.4787 140.808 89.5207 140.771 89.558C140.733 89.586 140.691 89.6 140.645 89.6H136.025C136.006 89.6 135.987 89.6093 135.969 89.628C135.959 89.6373 135.955 89.6513 135.955 89.67L135.633 92.288C135.633 92.3347 135.651 92.358 135.689 92.358H138.797C138.899 92.358 138.951 92.414 138.951 92.526L138.811 93.59C138.801 93.6367 138.778 93.6787 138.741 93.716C138.713 93.744 138.675 93.758 138.629 93.758H135.521C135.474 93.758 135.451 93.7813 135.451 93.828L134.947 97.832C134.947 97.8787 134.928 97.9207 134.891 97.958C134.853 97.986 134.811 98 134.765 98H133.519C133.472 98 133.435 97.986 133.407 97.958C133.379 97.9207 133.369 97.8787 133.379 97.832L134.541 88.368C134.55 88.3213 134.569 88.284 134.597 88.256C134.634 88.2187 134.676 88.2 134.723 88.2H140.827C140.873 88.2 140.911 88.2187 140.939 88.256C140.967 88.284 140.976 88.3213 140.967 88.368L140.827 89.432ZM146.187 98C146.094 98 146.033 97.958 146.005 97.874L144.703 93.842C144.703 93.8233 144.694 93.8093 144.675 93.8C144.666 93.7907 144.652 93.786 144.633 93.786H143.009C142.972 93.786 142.944 93.8093 142.925 93.856L142.435 97.832C142.435 97.8787 142.416 97.9207 142.379 97.958C142.342 97.986 142.3 98 142.253 98H141.007C140.96 98 140.923 97.986 140.895 97.958C140.867 97.9207 140.858 97.8787 140.867 97.832L142.029 88.368C142.038 88.3213 142.057 88.284 142.085 88.256C142.122 88.2187 142.164 88.2 142.211 88.2H145.949C146.705 88.2 147.307 88.4193 147.755 88.858C148.203 89.2967 148.427 89.88 148.427 90.608C148.427 90.7013 148.418 90.8507 148.399 91.056C148.324 91.7 148.096 92.2507 147.713 92.708C147.34 93.156 146.859 93.4687 146.271 93.646C146.234 93.646 146.215 93.674 146.215 93.73L147.629 97.804C147.638 97.8227 147.643 97.846 147.643 97.874C147.643 97.958 147.592 98 147.489 98H146.187ZM143.513 89.6C143.494 89.6 143.476 89.6093 143.457 89.628C143.448 89.6373 143.443 89.6513 143.443 89.67L143.107 92.456C143.088 92.5027 143.107 92.526 143.163 92.526H145.193C145.669 92.526 146.061 92.372 146.369 92.064C146.686 91.7467 146.845 91.3453 146.845 90.86C146.845 90.4773 146.728 90.174 146.495 89.95C146.262 89.7167 145.949 89.6 145.557 89.6H143.513ZM152.217 98.14C151.284 98.14 150.542 97.8787 149.991 97.356C149.441 96.824 149.165 96.1147 149.165 95.228C149.165 94.9947 149.175 94.8173 149.193 94.696L149.585 91.504C149.669 90.832 149.884 90.2393 150.229 89.726C150.584 89.2033 151.037 88.802 151.587 88.522C152.147 88.2327 152.768 88.088 153.449 88.088C154.392 88.088 155.139 88.354 155.689 88.886C156.249 89.4087 156.529 90.1087 156.529 90.986C156.529 91.21 156.52 91.3827 156.501 91.504L156.109 94.696C156.025 95.3773 155.806 95.9793 155.451 96.502C155.097 97.0247 154.639 97.4307 154.079 97.72C153.519 98 152.899 98.14 152.217 98.14ZM152.385 96.74C152.955 96.74 153.435 96.5627 153.827 96.208C154.219 95.844 154.453 95.3587 154.527 94.752L154.919 91.49C154.938 91.3407 154.947 91.2287 154.947 91.154C154.947 90.65 154.798 90.2487 154.499 89.95C154.201 89.642 153.795 89.488 153.281 89.488C152.712 89.488 152.236 89.67 151.853 90.034C151.471 90.398 151.242 90.8833 151.167 91.49L150.761 94.752C150.743 94.9013 150.733 95.0133 150.733 95.088C150.733 95.592 150.883 95.9933 151.181 96.292C151.48 96.5907 151.881 96.74 152.385 96.74ZM164.615 88.312C164.662 88.2373 164.727 88.2 164.811 88.2H166.071C166.118 88.2 166.155 88.2187 166.183 88.256C166.211 88.284 166.22 88.3213 166.211 88.368L165.049 97.832C165.04 97.8787 165.016 97.9207 164.979 97.958C164.951 97.986 164.914 98 164.867 98H163.607C163.56 98 163.523 97.986 163.495 97.958C163.467 97.9207 163.458 97.8787 163.467 97.832L164.293 91.154C164.293 91.126 164.284 91.1073 164.265 91.098C164.246 91.0887 164.228 91.098 164.209 91.126L162.179 93.814C162.132 93.8887 162.067 93.926 161.983 93.926H161.353C161.269 93.926 161.213 93.8887 161.185 93.814L159.799 91.14C159.79 91.112 159.771 91.1027 159.743 91.112C159.724 91.1213 159.715 91.14 159.715 91.168L158.889 97.832C158.889 97.8787 158.87 97.9207 158.833 97.958C158.796 97.986 158.754 98 158.707 98H157.461C157.414 98 157.377 97.986 157.349 97.958C157.321 97.9207 157.312 97.8787 157.321 97.832L158.483 88.368C158.492 88.3213 158.511 88.284 158.539 88.256C158.576 88.2187 158.618 88.2 158.665 88.2H159.911C160.004 88.2 160.065 88.2373 160.093 88.312L161.885 91.77C161.894 91.7887 161.908 91.798 161.927 91.798C161.946 91.798 161.96 91.7887 161.969 91.77L164.615 88.312Z" fill="black"/>
<path d="M103.528 127.32C103.368 128.6 102.856 129.656 101.992 130.488C101.128 131.32 100.024 131.848 98.68 132.072C98.6 132.104 98.552 132.152 98.536 132.216L98.368 133.776C98.352 133.856 98.312 133.92 98.248 133.968C98.2 134.032 98.136 134.064 98.056 134.064H95.728C95.648 134.064 95.584 134.032 95.536 133.968C95.488 133.92 95.472 133.856 95.488 133.776L95.704 132.192C95.704 132.112 95.672 132.064 95.608 132.048C94.44 131.808 93.528 131.328 92.872 130.608C92.232 129.872 91.912 128.96 91.912 127.872C91.912 127.728 91.928 127.496 91.96 127.176L92.032 126.648C92.048 126.568 92.08 126.504 92.128 126.456C92.192 126.392 92.264 126.36 92.344 126.36H94.864C94.944 126.36 95.008 126.392 95.056 126.456C95.104 126.504 95.12 126.568 95.104 126.648L95.056 127.008C94.976 127.648 95.184 128.192 95.68 128.64C96.176 129.072 96.896 129.288 97.84 129.288C98.672 129.288 99.304 129.088 99.736 128.688C100.184 128.272 100.408 127.776 100.408 127.2C100.408 126.864 100.296 126.576 100.072 126.336C99.848 126.096 99.552 125.888 99.184 125.712C98.816 125.52 98.232 125.256 97.432 124.92C96.536 124.568 95.784 124.224 95.176 123.888C94.584 123.536 94.08 123.072 93.664 122.496C93.248 121.92 93.04 121.216 93.04 120.384C93.04 120.256 93.056 120.048 93.088 119.76C93.248 118.528 93.736 117.512 94.552 116.712C95.368 115.896 96.4 115.368 97.648 115.128C97.744 115.096 97.792 115.048 97.792 114.984L97.96 113.232C97.976 113.152 98.008 113.088 98.056 113.04C98.12 112.976 98.192 112.944 98.272 112.944H100.6C100.68 112.944 100.744 112.976 100.792 113.04C100.84 113.088 100.856 113.152 100.84 113.232L100.6 115.032C100.6 115.112 100.632 115.16 100.696 115.176C101.832 115.416 102.72 115.92 103.36 116.688C104.016 117.44 104.344 118.368 104.344 119.472C104.344 119.616 104.328 119.848 104.296 120.168L104.248 120.528C104.248 120.608 104.216 120.68 104.152 120.744C104.088 120.792 104.016 120.816 103.936 120.816H101.416C101.24 120.816 101.152 120.72 101.152 120.528L101.176 120.336C101.192 120.272 101.2 120.168 101.2 120.024C101.2 119.432 100.976 118.936 100.528 118.536C100.08 118.12 99.44 117.912 98.608 117.912C97.856 117.912 97.256 118.096 96.808 118.464C96.376 118.816 96.16 119.312 96.16 119.952C96.16 120.304 96.264 120.6 96.472 120.84C96.696 121.08 97.008 121.304 97.408 121.512C97.824 121.72 98.456 121.992 99.304 122.328C100.232 122.712 100.96 123.048 101.488 123.336C102.032 123.624 102.512 124.048 102.928 124.608C103.36 125.152 103.576 125.848 103.576 126.696C103.576 126.824 103.56 127.032 103.528 127.32ZM120.041 124.608C120.233 125.136 120.329 125.728 120.329 126.384C120.329 126.528 120.313 126.76 120.281 127.08C120.137 128.072 119.841 128.896 119.393 129.552C118.881 130.368 118.177 131.016 117.281 131.496C116.401 131.96 115.385 132.192 114.233 132.192C113.145 132.192 112.193 131.968 111.377 131.52C110.561 131.056 109.993 130.392 109.673 129.528C109.481 129 109.385 128.424 109.385 127.8C109.385 127.624 109.401 127.376 109.433 127.056C109.545 126.16 109.825 125.336 110.273 124.584C110.577 124.04 111.017 123.584 111.593 123.216C111.673 123.168 111.681 123.112 111.617 123.048C111.297 122.744 111.025 122.36 110.801 121.896C110.593 121.4 110.489 120.88 110.489 120.336C110.489 119.68 110.601 119.056 110.825 118.464C111.065 117.856 111.393 117.32 111.809 116.856C112.337 116.232 112.993 115.752 113.777 115.416C114.577 115.064 115.441 114.888 116.369 114.888C117.313 114.888 118.129 115.064 118.817 115.416C119.521 115.768 120.049 116.248 120.401 116.856C120.817 117.512 121.025 118.256 121.025 119.088C121.025 120.144 120.721 121.104 120.113 121.968C119.793 122.4 119.433 122.752 119.033 123.024C118.953 123.088 118.945 123.144 119.009 123.192C119.489 123.544 119.833 124.016 120.041 124.608ZM114.137 118.848C113.945 119.136 113.825 119.472 113.777 119.856C113.761 119.952 113.753 120.08 113.753 120.24C113.753 120.528 113.809 120.816 113.921 121.104C114.209 121.68 114.729 121.968 115.481 121.968C116.233 121.968 116.833 121.68 117.281 121.104C117.537 120.752 117.689 120.328 117.737 119.832C117.753 119.768 117.761 119.664 117.761 119.52C117.761 119.328 117.721 119.096 117.641 118.824C117.513 118.504 117.305 118.256 117.017 118.08C116.745 117.888 116.393 117.792 115.961 117.792C115.593 117.792 115.241 117.888 114.905 118.08C114.585 118.256 114.329 118.512 114.137 118.848ZM116.369 128.448C116.817 127.856 117.041 127.136 117.041 126.288C117.041 125.952 116.985 125.616 116.873 125.28C116.601 124.608 116.041 124.272 115.193 124.272C114.393 124.272 113.777 124.6 113.345 125.256C112.961 125.8 112.769 126.48 112.769 127.296C112.769 127.696 112.849 128.056 113.009 128.376C113.297 128.984 113.825 129.288 114.593 129.288C115.345 129.288 115.937 129.008 116.369 128.448ZM126.891 132.264C125.339 132.264 124.131 131.856 123.267 131.04C122.403 130.224 121.971 129.096 121.971 127.656C121.971 127.272 121.987 126.976 122.019 126.768L122.787 120.432C122.995 118.768 123.651 117.448 124.755 116.472C125.875 115.496 127.291 115.008 129.003 115.008C130.555 115.008 131.763 115.416 132.627 116.232C133.507 117.032 133.947 118.136 133.947 119.544C133.947 119.928 133.931 120.224 133.899 120.432L133.131 126.768C132.923 128.464 132.259 129.808 131.139 130.8C130.019 131.776 128.603 132.264 126.891 132.264ZM127.251 129.36C127.939 129.36 128.515 129.144 128.979 128.712C129.443 128.28 129.723 127.688 129.819 126.936L130.635 120.336C130.651 120.24 130.659 120.112 130.659 119.952C130.659 119.312 130.483 118.816 130.131 118.464C129.779 118.096 129.283 117.912 128.643 117.912C127.955 117.912 127.379 118.136 126.915 118.584C126.451 119.016 126.179 119.6 126.099 120.336L125.283 126.936C125.267 127.032 125.259 127.176 125.259 127.368C125.259 127.992 125.435 128.48 125.787 128.832C126.139 129.184 126.627 129.36 127.251 129.36ZM136.316 132.096C135.836 132.096 135.444 131.944 135.14 131.64C134.836 131.32 134.684 130.92 134.684 130.44C134.684 129.832 134.884 129.328 135.284 128.928C135.7 128.512 136.204 128.304 136.796 128.304C137.292 128.304 137.684 128.456 137.972 128.76C138.276 129.048 138.428 129.44 138.428 129.936C138.428 130.544 138.22 131.056 137.804 131.472C137.388 131.888 136.892 132.096 136.316 132.096ZM145.277 132.264C143.725 132.264 142.517 131.856 141.653 131.04C140.789 130.224 140.357 129.096 140.357 127.656C140.357 127.272 140.373 126.976 140.405 126.768L141.173 120.432C141.381 118.768 142.037 117.448 143.141 116.472C144.261 115.496 145.677 115.008 147.389 115.008C148.941 115.008 150.149 115.416 151.013 116.232C151.893 117.032 152.333 118.136 152.333 119.544C152.333 119.928 152.317 120.224 152.285 120.432L151.517 126.768C151.309 128.464 150.645 129.808 149.525 130.8C148.405 131.776 146.989 132.264 145.277 132.264ZM145.637 129.36C146.325 129.36 146.901 129.144 147.365 128.712C147.829 128.28 148.109 127.688 148.205 126.936L149.021 120.336C149.037 120.24 149.045 120.112 149.045 119.952C149.045 119.312 148.869 118.816 148.517 118.464C148.165 118.096 147.669 117.912 147.029 117.912C146.341 117.912 145.765 118.136 145.301 118.584C144.837 119.016 144.565 119.6 144.485 120.336L143.669 126.936C143.653 127.032 143.645 127.176 143.645 127.368C143.645 127.992 143.821 128.48 144.173 128.832C144.525 129.184 145.013 129.36 145.637 129.36ZM158.278 132.264C156.726 132.264 155.518 131.856 154.654 131.04C153.79 130.224 153.358 129.096 153.358 127.656C153.358 127.272 153.374 126.976 153.406 126.768L154.174 120.432C154.382 118.768 155.038 117.448 156.142 116.472C157.262 115.496 158.678 115.008 160.39 115.008C161.942 115.008 163.15 115.416 164.014 116.232C164.894 117.032 165.334 118.136 165.334 119.544C165.334 119.928 165.318 120.224 165.286 120.432L164.518 126.768C164.31 128.464 163.646 129.808 162.526 130.8C161.406 131.776 159.99 132.264 158.278 132.264ZM158.638 129.36C159.326 129.36 159.902 129.144 160.366 128.712C160.83 128.28 161.11 127.688 161.206 126.936L162.022 120.336C162.038 120.24 162.046 120.112 162.046 119.952C162.046 119.312 161.87 118.816 161.518 118.464C161.166 118.096 160.67 117.912 160.03 117.912C159.342 117.912 158.766 118.136 158.302 118.584C157.838 119.016 157.566 119.6 157.486 120.336L156.67 126.936C156.654 127.032 156.646 127.176 156.646 127.368C156.646 127.992 156.822 128.48 157.174 128.832C157.526 129.184 158.014 129.36 158.638 129.36Z" fill="black"/>
<path d="M116.48 161.144C115.445 161.144 114.619 160.851 114 160.264C113.392 159.677 113.088 158.888 113.088 157.896C113.088 157.64 113.099 157.443 113.12 157.304L113.584 153.496C113.68 152.739 113.92 152.072 114.304 151.496C114.699 150.92 115.205 150.472 115.824 150.152C116.443 149.832 117.131 149.672 117.888 149.672C118.933 149.672 119.76 149.965 120.368 150.552C120.987 151.139 121.296 151.923 121.296 152.904C121.296 153.16 121.285 153.357 121.264 153.496L120.8 157.304C120.715 158.061 120.475 158.733 120.08 159.32C119.685 159.896 119.179 160.344 118.56 160.664C117.941 160.984 117.248 161.144 116.48 161.144ZM116.64 159.816C117.355 159.816 117.952 159.592 118.432 159.144C118.923 158.696 119.216 158.104 119.312 157.368L119.776 153.48C119.797 153.288 119.808 153.149 119.808 153.064C119.808 152.435 119.621 151.933 119.248 151.56C118.875 151.187 118.368 151 117.728 151C117.035 151 116.443 151.229 115.952 151.688C115.461 152.136 115.173 152.733 115.088 153.48L114.608 157.368C114.587 157.56 114.576 157.699 114.576 157.784C114.576 158.403 114.763 158.899 115.136 159.272C115.509 159.635 116.011 159.816 116.64 159.816ZM126.777 152.744C127.545 152.744 128.142 152.957 128.569 153.384C129.006 153.8 129.225 154.371 129.225 155.096C129.225 155.192 129.214 155.347 129.193 155.56L128.553 160.84C128.542 160.883 128.521 160.92 128.489 160.952C128.457 160.984 128.419 161 128.377 161H127.193C127.097 161 127.049 160.947 127.049 160.84L127.673 155.864C127.683 155.8 127.689 155.704 127.689 155.576C127.689 155.128 127.561 154.765 127.305 154.488C127.049 154.211 126.697 154.072 126.249 154.072C125.747 154.072 125.321 154.237 124.969 154.568C124.627 154.899 124.425 155.325 124.361 155.848L123.753 160.84C123.731 160.947 123.673 161 123.577 161H122.393C122.286 161 122.243 160.947 122.265 160.84L123.225 153.016C123.246 152.909 123.305 152.856 123.401 152.856H124.569C124.622 152.856 124.659 152.872 124.681 152.904C124.713 152.936 124.723 152.973 124.713 153.016L124.633 153.592C124.633 153.613 124.638 153.629 124.649 153.64C124.67 153.651 124.686 153.645 124.697 153.624C125.209 153.037 125.902 152.744 126.777 152.744ZM130.639 161C130.532 161 130.489 160.947 130.511 160.84L131.839 149.96C131.86 149.853 131.919 149.8 132.015 149.8H133.199C133.305 149.8 133.348 149.853 133.327 149.96L131.999 160.84C131.977 160.947 131.919 161 131.823 161H130.639ZM133.335 164.184C133.303 164.184 133.276 164.168 133.255 164.136C133.234 164.104 133.228 164.067 133.239 164.024L133.351 163.08C133.372 162.973 133.431 162.92 133.527 162.92H133.559C133.975 162.909 134.306 162.856 134.551 162.76C134.807 162.664 135.026 162.483 135.207 162.216C135.399 161.96 135.602 161.571 135.815 161.048C135.826 161.037 135.826 161.021 135.815 161C135.815 160.968 135.815 160.952 135.815 160.952L134.199 153.032V153C134.199 152.904 134.247 152.856 134.343 152.856H135.607C135.692 152.856 135.746 152.899 135.767 152.984L136.791 159.016C136.791 159.037 136.802 159.048 136.823 159.048C136.855 159.048 136.876 159.037 136.887 159.016L139.351 152.984C139.404 152.899 139.474 152.856 139.559 152.856H140.791C140.908 152.856 140.94 152.915 140.887 153.032L137.015 161.56C136.684 162.285 136.38 162.829 136.103 163.192C135.826 163.555 135.484 163.811 135.079 163.96C134.674 164.109 134.124 164.184 133.431 164.184H133.335Z" fill="black"/>
</svg>
