<svg width="336" height="65" viewBox="0 0 336 65" fill="none" xmlns="http://www.w3.org/2000/svg">
<path d="M323.5 39C329.895 39 335 33.5831 335 27C335 20.4169 329.895 15 323.5 15C317.105 15 312 20.4169 312 27C312 33.5831 317.105 39 323.5 39Z" fill="#262424" stroke="white" stroke-width="2"/>
<line x1="0.00655016" y1="51.5" x2="229.007" y2="52.5" stroke="white" stroke-width="3"/>
<path d="M248 0C270.4 12.4 263 31.8333 256.5 40" stroke="white" stroke-width="3"/>
<path opacity="0.21" d="M242.5 64C250.661 64 257 56.2229 257 47C257 37.7771 250.661 30 242.5 30C234.339 30 228 37.7771 228 47C228 56.2229 234.339 64 242.5 64Z" fill="#262424" stroke="#E4E3E3" stroke-width="2"/>
</svg>
