<svg width="336" height="67" viewBox="0 0 336 67" fill="none" xmlns="http://www.w3.org/2000/svg">
<path d="M323.5 41C329.895 41 335 35.5831 335 29C335 22.4169 329.895 17 323.5 17C317.105 17 312 22.4169 312 29C312 35.5831 317.105 41 323.5 41Z" fill="#262424" stroke="white" stroke-width="2"/>
<line x1="0.00655016" y1="53.5" x2="229.007" y2="54.5" stroke="white" stroke-width="3"/>
<path d="M248 2C270.4 14.4 263 33.8333 256.5 42" stroke="white" stroke-width="3"/>
<path opacity="0.21" d="M242.5 66C250.661 66 257 58.2229 257 49C257 39.7771 250.661 32 242.5 32C234.339 32 228 39.7771 228 49C228 58.2229 234.339 66 242.5 66Z" fill="#262424" stroke="#E4E3E3" stroke-width="2"/>
</svg>
